<svg version="1" xmlns="http://www.w3.org/2000/svg" width="1066.667" height="1066.667" viewBox="0 0 800.000000 800.000000"><path d="M500 221.7c-5.4.6-22.9 4.3-24.8 5.2-.9.4-4.6 2.2-8.2 3.8-11.3 5.3-20.2 14.8-24.1 25.7-2.4 7-2.9 9.9-3 17.6-.1 19.8 12.4 31.8 45.1 42.9 11.5 4 15.6 6.3 17.6 10.3 4.1 7.9-3.1 12.7-16 10.7-6.5-1.1-9.6-4-9.6-9.1V325h-26.9c-30.8 0-28.1-1-27.5 10.3 1 20.5 15.7 35.2 41.9 41.8 7.5 1.9 11.7 2.3 25.5 2.3 17.7 0 20.8-.2 31.4-2.9 18.8-4.7 32.1-14.6 39.1-28.9 6.1-12.6 7.4-25 3.8-36.6-1.3-4.2-3.1-6.9-7.7-11.6-7.1-7-14.1-10.7-30.3-15.8-13.6-4.3-23.1-8.1-25.5-10.3-3.6-3.3-1.8-9.4 3.3-11.2 9.3-3.2 18.4 1.4 17.3 8.6l-.4 2.3h53.8l.4-2.4c2-10.5-2.2-24.4-9.9-32.2-6.1-6.2-18.8-13-27.8-14.8-1.1-.2-3.8-.9-6-1.4-4-.9-24.6-1.2-31.5-.5zm-301.4 5c-.3 1-.8 3.1-1.1 4.8-.2 1.6-.7 4.1-1 5.5-.3 1.4-.8 3.8-1.1 5.5-.2 1.6-2.2 12.4-4.4 24-2.1 11.5-4.4 23.7-4.9 27-.6 3.3-1.3 7.1-1.6 8.5-1.8 9-12.8 68.1-13.2 70.8l-.5 3.2 28.8-.2 28.8-.3 1.8-9.5c2.9-15.3 4.7-25.2 5.3-29 .3-1.9 1-5.4 1.6-7.8.5-2.3 1.2-5.9 1.5-7.8.6-4.2.8-5.1 2.9-15.4.8-4.1 1.7-9.1 2-11 1-6.5 3.6-18.4 4.1-18.9.2-.2.4 1.6.5 4 .1 9.7 1 53.4 1.3 68.9.3 9.1.5 18.9.5 21.7l.1 5.3h65.6l3.7-9.3c5.7-14.4 9.6-24 10.7-26.2.5-1.1 3.9-9.4 7.6-18.5 3.6-9.1 7.4-18.3 8.3-20.5 1-2.2 3.7-8.8 6.1-14.7 2.4-6 4.6-10.6 4.8-10.3.3.2-.1 3.3-.8 6.7-.7 3.5-1.4 7.2-1.6 8.3-.2 1.1-1.2 7.1-2.4 13.2-1.1 6.2-2.9 16.4-4 22.5-1.2 6.2-3.4 18.3-5 26.8s-3.2 17-3.5 18.8l-.5 3.2 28.7-.2 28.7-.3 1.2-6c.7-3.3 1.5-7.6 1.8-9.5.3-1.9.8-4.9 1.1-6.5 1.5-7.5 12.6-67.3 16.9-90.5.2-1.4 1.8-10 3.5-19.1 1.7-9.1 3.1-17.1 3.1-17.8 0-.8-12.8-1.1-48.2-1.1h-48.3l-9.9 25.8c-13 33.9-20.5 53.1-21.8 56.2-.6 1.4-1.2 2.9-1.2 3.4-.1.5-.7 1.1-1.3 1.3-1 .4-1.3-1.3-1.4-5.9 0-3.5-.2-9.9-.4-14.3s-.6-16.6-1-27c-.4-10.5-.8-22.2-1-26-.2-3.9-.3-8.5-.4-10.3l-.1-3.2h-44.9c-42 0-45 .1-45.5 1.7zm402.9-.5c-.2.7-.7 3-1 5.1-.3 2.1-1.1 7.1-1.9 11-2.1 10.4-20.4 108.8-22 118.2-.3 1.6-1 5.4-1.6 8.4-.5 2.9-1 5.8-1 6.2 0 .5 13.1.9 29 .9h29v-2.3c0-1.2 1.1-8.1 2.5-15.2 1.3-7.2 3.3-17.3 4.2-22.5l1.8-9.5h12.8l2.6 7.5c1.5 4.1 5.4 15.3 8.6 24.7l5.9 17.3H732l-2.7-7.3c-1.4-3.9-7.6-21-13.8-37.8l-11.1-30.6 24.3-37.2c13.4-20.4 24.3-37.4 24.3-37.6 0-.3-14.6-.5-32.5-.5h-32.4l-3.5 6.2c-4.4 8.1-15.8 29.5-19.9 37.5l-3.1 6.3H650l.5-2.8c.4-1.5.9-3.8 1.2-5.2.3-1.4.7-3.9 1-5.5.3-1.7 1.8-10 3.4-18.5 1.6-8.5 2.9-16.1 2.9-16.8 0-.9-6.4-1.2-28.5-1.2-22 0-28.7.3-29 1.2zM61 412.2c-10.1 1.8-16.7 5.8-20.5 12.2-5 8.6-3.4 19.5 3.6 24.9 1.9 1.4 7.6 4.2 12.7 6.2 5.1 2.1 9.7 4.5 10.2 5.5 1.4 2.7-.9 5-5.2 5.2-4.2.1-6.8-1.5-6.8-4.4 0-1.7-.8-1.8-12.7-1.6l-12.8.3-.3 2.9c-.5 4.5 2.6 11.2 6.9 15 5.5 4.6 13.5 7 24.3 7.2 22.8.4 35.3-8.3 36.4-25.1.7-10.3-4.1-15.1-20.4-20.5-10.3-3.5-13.3-6.1-9.8-8.7 3.4-2.5 9.4-.6 9.4 3 0 1.4 24.1 1.8 25.1.4 1-1.5-.2-9-2-12.2-5.1-8.9-21.6-13.4-38.1-10.3zm79.5-.6c-12.7 2-25.1 11.3-30.5 23-10.7 23-3.2 43.7 18 49.6 24.8 6.8 49.8-6.1 56.4-29.2 5.3-18.6-1.9-34.9-18.3-41.1-5.5-2.1-18.9-3.3-25.6-2.3zm13.9 28c2.9 3 3.6 7.2 2 12-1.9 5.6-4.5 7.6-10.3 8.2-6 .5-9.1-1.1-11.1-5.7-4.7-11.5 10.7-23.1 19.4-14.5zm44.1-25.4c-1.6 5-7.6 41.9-7.7 47-.1 11.1 5.1 19.2 14.6 22.5 7.4 2.6 25.2 2.5 32.6-.2 8-2.9 14.9-10.1 18.3-19 2.3-6 5.4-19.6 7.2-31.5.3-1.9.8-4.6 1-6 .6-2.7 1.1-5.6 2.1-10.8l.6-3.3-13.7.3-13.8.3-.4 2.5c-.2 1.4-1.5 8.6-2.8 16-1.4 7.4-2.8 14.8-3.1 16.5-1.6 9.1-4.8 12.7-10.4 11.9-3.6-.6-5.2-3.2-4.5-7.4.6-4.1 1.6-9.7 2.2-12.5.2-1.1 1.2-6.7 2.3-12.5 1.1-5.8 2.2-11.5 2.5-12.8.5-2.2.5-2.2-13-2.2-10 0-13.7.3-14 1.2zm75.2-.5c-.3.5-.8 2.8-1.3 5.3-.4 2.5-.8 4.7-.9 5-.1.3-.5 2.5-.9 5-.5 2.5-1 5.3-1.2 6.2-.3 2 .5 2.1 13.9 1.9 5.6-.1 7.7.2 7.7 1.1 0 .7-1.6 9.8-3.6 20.3-1.9 10.4-3.8 20.5-4.1 22.2l-.6 3.3h27.1l.6-2.8c.3-1.5.8-4.1 1.1-5.7.3-1.7.7-4.1 1-5.5.3-1.4.8-4 1.1-5.9.3-1.8.8-4.3 1-5.5.3-1.1.8-3.7 1.1-5.6.3-1.9 1-6.2 1.7-9.5l1.2-6 10.9-.2 11-.1 1.6-8.4c1-4.5 2-10 2.3-12.1l.6-3.7h-35.4c-19.5 0-35.7.3-35.9.7zm78.2.8c-.1.8-.2 1.8-.3 2.2-.1.5-.6 2.8-1.1 5.3-.5 2.5-.9 4.7-1 5-.2.7-1.5 8.8-2.1 12.4-.3 1.6-.6 3.2-.8 3.5-.2.3-.7 2.8-1 5.5-.4 2.8-1.4 8-2.1 11.8-.8 3.7-1.7 8.2-2 10-.3 1.8-.8 4-1 4.8-.2.8-.6 3.2-.9 5.2l-.6 3.8h13.5c14.3 0 14.1.1 14.8-5 .2-1.4 1-6 1.7-10.3l1.4-7.7h10.3c5.7 0 10.3.2 10.3.4s-.9 4.8-2 10.1-2 10.3-2 11.1c0 1.1 2.6 1.4 13.5 1.4 7.4 0 13.5-.3 13.6-.8.1-1.1.6-3.8 4.5-24.7 2-10.5 3.8-20.1 4-21.5.2-1.4.6-3.4.9-4.6.3-1.2.7-3.9 1-6 .4-2.1 1-5.5 1.6-7.4 1.6-6.2 2.1-6-12.5-6-15 0-13.9-.5-15.1 7.5-.3 2.2-1.1 6.7-1.8 10.1l-1.2 6-10.3.1c-10 .1-10.2.1-9.8-2 .2-1.2 1.1-6 2-10.6.9-4.6 1.6-8.9 1.6-9.7 0-2.2-26.9-2-27.1.1zm-200.2 87.4c-12.7 3.5-19.4 10.6-20.2 21.2-.4 5.6 1 9.5 4.9 13.7 2 2.3 13.3 8.2 15.6 8.2 2.2 0 8.8 4 9.4 5.6 1 2.6-1.6 4.6-5.8 4.6-4.2 0-6.6-1.6-6.6-4.3 0-1.8-.9-1.9-13-1.9h-13v3.7c.1 8.6 6.7 16.6 16.5 20 7.2 2.6 24.9 2.5 33-.2 7.4-2.4 15.4-9.8 17.3-16.1 1.9-6.5 1.5-12.6-1.1-16.5-3.2-4.8-7.5-7.3-18.3-10.9-9.9-3.3-12.7-5.7-10.3-8.6 2.4-2.9 9.9-.8 9.9 2.9 0 1.8 23.8 1.7 24.9-.1 1.2-2 .3-8.3-1.7-11.7-5.7-9.7-24.6-14.1-41.5-9.6zm347.3-.3c-16.9 4.5-28.1 17-31.1 34.8-4.1 24.4 10.6 39.2 38.2 38.2 8.6-.3 10.3-.6 17.2-4 13.6-6.5 22.7-18.6 24.2-32.1.4-3.3.8-6.2.8-6.5.3-1.5-1.6-10.6-2.9-13.6-2.4-5.7-10.2-12.8-17-15.4-7.4-2.9-21.3-3.5-29.4-1.4zm17.5 27.4c6.9 7.3.5 20.2-10 20.2-10.1 0-13.4-10-6.7-20 1.3-1.9 7.8-3.9 11.1-3.4 1.6.2 4.1 1.7 5.6 3.2zm-313.2-25.8c0 .7-.7 4.9-1.6 9.3-.9 4.4-1.9 9.3-2.1 11l-.5 3 11-.2 11-.1-.5 4.1c-.8 5.3-1.6 9.8-2.1 11.7-.2.8-.7 3.1-1 5-.3 1.9-1 5.5-1.5 8-1 4.4-1.4 6.6-2.6 14.2l-.7 3.8h27.1l3.2-17.3c1.8-9.4 3.8-19.9 4.4-23.2l1.2-6 8.4-.2c4.7-.1 9.7-.2 11.1-.2 2.4-.1 2.6-.5 4.3-9.9.9-5.4 1.9-10.8 2.3-12l.5-2.2h-35.9c-28.1 0-36 .3-36 1.2zm78 .5c-.1 1-.4 2.9-.7 4.3-1 5.2-3.6 18.6-4 21.5-.3 1.6-1.1 6.2-1.9 10-2.4 12.7-1.1 20.6 4.3 26.8 5.8 6.6 12.6 8.7 26.7 8.2 19.3-.6 28.2-6.3 33.9-22 1.9-5.2 7.5-31.5 10-47.3l.5-3.2h-13.5c-7.5 0-13.6.1-13.6.2 0 .2-.9 5-2.1 10.8-1.1 5.8-2.2 11.7-2.4 13.2-.2 1.5-.6 3.5-.9 4.5-.3 1-.8 3.8-1.1 6.3-.8 5.6-3.1 10.6-5.3 11.5-9.4 3.7-11.3-1-7.7-18.5.2-1.4 1-4.9 1.6-7.8.6-2.9 1.2-6.5 1.4-8 .2-1.5.8-4.8 1.3-7.5l.9-4.7h-13.6c-12.3 0-13.7.2-13.8 1.7zm77.7-1.2c0 .4-1.6 9.3-3.6 19.8-1.9 10.6-3.8 20.3-4 21.7-2.3 12.3-4.5 24-5 26.3l-.6 2.8 21.5-.1c22.9-.1 31.4-1.2 39.3-5 12.7-6.2 20.6-21.8 20-39.5-.2-9.3-2.9-15.2-8.8-19.7-7-5.3-11.4-6.1-36-6.6-12.6-.2-22.8-.1-22.8.3zm32.8 24.4c7.9.4 8.2 14.7.4 19.3-3.5 2.1-14.2 3-14.2 1.3 0-.7.9-5.7 2-11s2-9.9 2-10c0-.2 1.7-.2 3.8 0 2 .2 4.7.3 6 .4zm47.8-22.2c-.3 1.6-1 5.5-1.6 8.8-1.2 7.2-1.3 7.5-4.5 24.5-2.3 11.8-3.7 19.5-5.9 31.7l-.6 3.3h13.4c12 0 13.5-.2 14-1.8.3-.9 2.1-10.3 4-20.7 1.9-10.5 4-21.5 4.6-24.5.6-3 1.3-6.6 1.5-8 .3-1.4.7-3.5.9-4.7.3-1.1.8-4.2 1.1-6.7l.7-4.6h-27l-.6 2.7z"/></svg>